<svg version="1.1" viewBox="0.0 0.0 960.0 720.0" fill="none" stroke="none" stroke-linecap="square" stroke-miterlimit="10" xmlns:xlink="http://www.w3.org/1999/xlink" xmlns="http://www.w3.org/2000/svg"><clipPath id="g205742f239d_0_17.0"><path d="m0 0l960.0 0l0 720.0l-960.0 0l0 -720.0z" clip-rule="nonzero"/></clipPath><g clip-path="url(#g205742f239d_0_17.0)"><path fill="#ffffff" d="m0 0l960.0 0l0 720.0l-960.0 0z" fill-rule="evenodd"/><path fill="#0083ff" d="m303.3701 248.00128l0 0c0 -35.34694 28.654327 -64.00128 64.00128 -64.00128l255.9974 0l0 0c16.974243 0 33.253174 6.7429657 45.255737 18.745544c12.0026245 12.002563 18.745544 28.28154 18.745544 45.255737l0 255.99744c0 35.346924 -28.654297 64.00128 -64.00128 64.00128l-255.9974 0c-35.346954 0 -64.00128 -28.654358 -64.00128 -64.00128z" fill-rule="evenodd"/><path stroke="#0083ff" stroke-width="16.0" stroke-linejoin="round" stroke-linecap="butt" d="m303.3701 248.00128l0 0c0 -35.34694 28.654327 -64.00128 64.00128 -64.00128l255.9974 0l0 0c16.974243 0 33.253174 6.7429657 45.255737 18.745544c12.0026245 12.002563 18.745544 28.28154 18.745544 45.255737l0 255.99744c0 35.346924 -28.654297 64.00128 -64.00128 64.00128l-255.9974 0c-35.346954 0 -64.00128 -28.654358 -64.00128 -64.00128z" fill-rule="evenodd"/><path fill="#000000" fill-opacity="0.0" d="m325.88715 123.90551l399.1181 0l0 504.18896l-399.1181 0z" fill-rule="evenodd"/><path fill="#f3f5f5" d="m480.19965 235.62503l49.21875 0l0 199.40625q0 40.828125 -25.484375 64.859375q-25.484375 24.015594 -67.28125 24.015594q-44.53125 0 -68.75 -22.453094q-24.21875 -22.46875 -24.21875 -62.515625l49.21875 0q0 22.65625 11.21875 34.09375q11.234375 11.421875 32.53125 11.421875q19.921875 0 31.734375 -13.1875q11.8125 -13.1875 11.8125 -36.421875l0 -199.21875zm157.82031 284.37497l-49.21875 0l0 -284.37497l49.21875 0l0 284.37497z" fill-rule="nonzero"/></g></svg>